<?xml version="1.0" encoding="iso-8859-1"?>
<!-- Generator: Adobe Illustrator 19.0.0, SVG Export Plug-In . SVG Version: 6.00 Build 0)  -->
<svg version="1.1" id="Capa_1" xmlns="http://www.w3.org/2000/svg" xmlns:xlink="http://www.w3.org/1999/xlink" x="0px" y="0px"
	 viewBox="0 0 512.01 512.01" style="enable-background:new 0 0 512.01 512.01;" xml:space="preserve">
<g>
	<g>
		<path d="M491.127,155.042l-230.4-153.6c-2.867-1.92-6.596-1.92-9.463,0l-230.4,153.6c-2.372,1.587-3.797,4.25-3.797,7.1v341.333
			c0,4.719,3.823,8.533,8.533,8.533h460.8c4.71,0,8.533-3.814,8.533-8.533V162.141C494.933,159.3,493.508,156.629,491.127,155.042z
			 M477.866,494.941H34.133V166.715L255.999,18.807l221.867,147.908V494.941z"/>
	</g>
</g>
<g>
	<g>
		<path d="M418.133,238.941H93.866c-4.71,0-8.533,3.814-8.533,8.533v256c0,4.719,3.823,8.533,8.533,8.533h324.267
			c4.71,0,8.533-3.814,8.533-8.533v-256C426.666,242.756,422.843,238.941,418.133,238.941z M409.6,494.941H102.4V256.008h307.2
			V494.941z"/>
	</g>
</g>
<g>
	<g>
		<path d="M358.4,281.608H93.866c-4.71,0-8.533,3.814-8.533,8.533s3.823,8.533,8.533,8.533H358.4c4.71,0,8.533-3.814,8.533-8.533
			S363.11,281.608,358.4,281.608z"/>
	</g>
</g>
<g>
	<g>
		<path d="M418.133,281.608h-25.6c-4.71,0-8.533,3.814-8.533,8.533s3.823,8.533,8.533,8.533h25.6c4.71,0,8.533-3.814,8.533-8.533
			S422.843,281.608,418.133,281.608z"/>
	</g>
</g>
<g>
	<g>
		<path d="M418.133,366.941h-25.6c-4.71,0-8.533,3.814-8.533,8.533s3.823,8.533,8.533,8.533h25.6c4.71,0,8.533-3.814,8.533-8.533
			S422.843,366.941,418.133,366.941z"/>
	</g>
</g>
<g>
	<g>
		<path d="M418.133,324.275H153.6c-4.71,0-8.533,3.814-8.533,8.533c0,4.719,3.823,8.533,8.533,8.533h264.533
			c4.71,0,8.533-3.814,8.533-8.533C426.666,328.089,422.843,324.275,418.133,324.275z"/>
	</g>
</g>
<g>
	<g>
		<path d="M119.466,324.275h-25.6c-4.71,0-8.533,3.814-8.533,8.533c0,4.719,3.823,8.533,8.533,8.533h25.6
			c4.71,0,8.533-3.814,8.533-8.533C128,328.089,124.177,324.275,119.466,324.275z"/>
	</g>
</g>
<g>
	<g>
		<path d="M358.4,366.941H93.866c-4.71,0-8.533,3.814-8.533,8.533s3.823,8.533,8.533,8.533H358.4c4.71,0,8.533-3.814,8.533-8.533
			S363.11,366.941,358.4,366.941z"/>
	</g>
</g>
<g>
	<g>
		<path d="M418.133,452.275h-25.6c-4.71,0-8.533,3.814-8.533,8.533c0,4.719,3.823,8.533,8.533,8.533h25.6
			c4.71,0,8.533-3.814,8.533-8.533C426.666,456.089,422.843,452.275,418.133,452.275z"/>
	</g>
</g>
<g>
	<g>
		<path d="M358.4,452.275H93.866c-4.71,0-8.533,3.814-8.533,8.533c0,4.719,3.823,8.533,8.533,8.533H358.4
			c4.71,0,8.533-3.814,8.533-8.533C366.933,456.089,363.11,452.275,358.4,452.275z"/>
	</g>
</g>
<g>
	<g>
		<path d="M418.133,409.608H153.6c-4.71,0-8.533,3.814-8.533,8.533s3.823,8.533,8.533,8.533h264.533c4.71,0,8.533-3.814,8.533-8.533
			S422.843,409.608,418.133,409.608z"/>
	</g>
</g>
<g>
	<g>
		<path d="M119.466,409.608h-25.6c-4.71,0-8.533,3.814-8.533,8.533s3.823,8.533,8.533,8.533h25.6c4.71,0,8.533-3.814,8.533-8.533
			S124.177,409.608,119.466,409.608z"/>
	</g>
</g>
<g>
	<g>
		<path d="M263.142,3.865c-2.586-3.942-7.885-5.043-11.819-2.466L3.857,163.532c-3.942,2.586-5.043,7.876-2.458,11.819
			c1.63,2.5,4.361,3.857,7.142,3.857c1.604,0,3.226-0.444,4.676-1.391L260.684,15.684C264.618,13.098,265.728,7.808,263.142,3.865z"
			/>
	</g>
</g>
<g>
	<g>
		<path d="M508.151,163.532L260.684,1.399c-3.951-2.577-9.233-1.476-11.819,2.466c-2.586,3.942-1.485,9.233,2.458,11.819
			L498.79,177.817c1.442,0.939,3.063,1.391,4.668,1.391c2.782,0,5.513-1.357,7.159-3.857
			C513.194,171.409,512.093,166.118,508.151,163.532z"/>
	</g>
</g>
<g>
	<g>
		<path d="M179.2,153.608H93.866c-4.71,0-8.533,3.814-8.533,8.533v51.2c0,4.719,3.823,8.533,8.533,8.533H179.2
			c4.71,0,8.533-3.814,8.533-8.533v-51.2C187.733,157.423,183.91,153.608,179.2,153.608z M170.666,204.808H102.4v-34.133h68.267
			V204.808z"/>
	</g>
</g>
<g>
	<g>
		<path d="M418.133,153.608h-85.333c-4.71,0-8.533,3.814-8.533,8.533v51.2c0,4.719,3.823,8.533,8.533,8.533h85.333
			c4.71,0,8.533-3.814,8.533-8.533v-51.2C426.666,157.423,422.843,153.608,418.133,153.608z M409.6,204.808h-68.267v-34.133H409.6
			V204.808z"/>
	</g>
</g>
<g>
	<g>
		<path d="M298.666,153.608h-85.333c-4.71,0-8.533,3.814-8.533,8.533v51.2c0,4.719,3.823,8.533,8.533,8.533h85.333
			c4.71,0,8.533-3.814,8.533-8.533v-51.2C307.2,157.423,303.377,153.608,298.666,153.608z M290.133,204.808h-68.267v-34.133h68.267
			V204.808z"/>
	</g>
</g>
<g>
</g>
<g>
</g>
<g>
</g>
<g>
</g>
<g>
</g>
<g>
</g>
<g>
</g>
<g>
</g>
<g>
</g>
<g>
</g>
<g>
</g>
<g>
</g>
<g>
</g>
<g>
</g>
<g>
</g>
</svg>
