<?xml version="1.0" encoding="UTF-8" standalone="no"?>
<!-- Generator: Adobe Illustrator 19.0.0, SVG Export Plug-In . SVG Version: 6.00 Build 0)  -->

<svg
   xmlns:dc="http://purl.org/dc/elements/1.1/"
   xmlns:cc="http://creativecommons.org/ns#"
   xmlns:rdf="http://www.w3.org/1999/02/22-rdf-syntax-ns#"
   xmlns:svg="http://www.w3.org/2000/svg"
   xmlns="http://www.w3.org/2000/svg"
   xmlns:sodipodi="http://sodipodi.sourceforge.net/DTD/sodipodi-0.dtd"
   xmlns:inkscape="http://www.inkscape.org/namespaces/inkscape"
   version="1.1"
   id="Capa_1"
   x="0px"
   y="0px"
   viewBox="0 0 463 204"
   xml:space="preserve"
   sodipodi:docname="logo.svg"
   width="463"
   height="204"
   inkscape:version="0.92.0 r15299"><metadata
     id="metadata39"><rdf:RDF><cc:Work
         rdf:about=""><dc:format>image/svg+xml</dc:format><dc:type
           rdf:resource="http://purl.org/dc/dcmitype/StillImage" /><dc:title></dc:title></cc:Work></rdf:RDF></metadata><defs
     id="defs37" /><sodipodi:namedview
     pagecolor="#ffffff"
     bordercolor="#666666"
     borderopacity="1"
     objecttolerance="10"
     gridtolerance="10"
     guidetolerance="10"
     inkscape:pageopacity="0"
     inkscape:pageshadow="2"
     inkscape:window-width="1920"
     inkscape:window-height="1017"
     id="namedview35"
     showgrid="false"
     inkscape:pagecheckerboard="true"
     height="352px"
     inkscape:zoom="0.72085184"
     inkscape:cx="291.97356"
     inkscape:cy="181.3999"
     inkscape:window-x="-8"
     inkscape:window-y="-8"
     inkscape:window-maximized="1"
     inkscape:current-layer="Capa_1" /><path
     d="m 462.21818,114.345 -20.579,-68.598 C 438.63418,35.73 429.58818,29 419.13018,29 h -44.096 c -4.142,0 -7.5,3.357 -7.5,7.5 v 16.500002 h -17 V 13.5 c 0,-4.687 -3.813,-8.5 -8.5,-8.5 H 8.0341807 c -4.6869996,0 -8.49999965,3.813 -8.49999965,8.5 v 134 c 0,4.687 3.81300005,8.5 8.49999965,8.5 h 7.5000003 v 16.5 c 0,4.143 3.358,7.5 7.5,7.5 h 57.409 c 3.374,13.759 15.806,24 30.590999,24 9.607,0 18.217,-4.328 24,-11.131 5.783,6.803 14.393,11.131 24,11.131 14.785,0 27.216,-10.241 30.591,-24 h 75.855 c 2.647,4.765 7.728,8 13.555,8 h 40 c 5.827,0 10.908,-3.235 13.555,-8 h 19.855 c 3.374,13.759 15.806,24 30.591,24 14.785,0 27.216,-10.241 30.591,-24 h 41.407 c 4.142,0 7.5,-3.357 7.5,-7.5 v -56 c 0,-0.729 -0.106,-1.456 -0.316,-2.155 z M 444.95418,109 h -21.92 c -9.098,0 -16.5,-7.402 -16.5,-16.499998 v -24.5 h 26.12 z m -92.511,56 h -17.909 v -8.5 c 0,-0.169 -0.02,-0.333 -0.025,-0.5 h 8.525 13.181 c -1.697,2.749 -2.981,5.778 -3.772,9 z m 15.091,-96.999998 V 141 h -17 V 68.000002 Z M 14.534181,108 H 292.92718 l -3.196,3.196 c -2.929,2.93 -2.929,7.678 0,10.607 1.464,1.464 3.384,2.196 5.303,2.196 1.919,0 3.839,-0.732 5.303,-2.196 l 16,-16 c 2.929,-2.93 2.929,-7.678 0,-10.607 l -16,-15.999998 c -2.929,-2.928 -7.678,-2.928 -10.606,0 -2.929,2.93 -2.929,7.678 0,10.607 l 3.196,3.196 H 14.534181 V 19.999 H 335.53418 v 121 H 14.534181 Z m 248.999999,48.5 v 8.5 h -73.909 c -0.79,-3.222 -2.074,-6.251 -3.772,-9 h 77.707 c -0.006,0.167 -0.026,0.331 -0.026,0.5 z M 30.534181,156 h 53.681 c -1.698,2.749 -2.982,5.778 -3.772,9 h -49.909 z m 80.499999,33 c -9.098,0 -16.499999,-7.402 -16.499999,-16.5 0,-9.098 7.401999,-16.5 16.499999,-16.5 9.098,0 16.5,7.402 16.5,16.5 0,9.098 -7.402,16.5 -16.5,16.5 z m 48,0 c -9.098,0 -16.5,-7.402 -16.5,-16.5 0,-9.098 7.402,-16.5 16.5,-16.5 9.098,0 16.5,7.402 16.5,16.5 0,9.098 -7.402,16.5 -16.5,16.5 z m 160,-16 h -40 c -0.276,0 -0.5,-0.225 -0.5,-0.5 v -16 c 0,-0.275 0.224,-0.5 0.5,-0.5 h 40 c 0.276,0 0.5,0.225 0.5,0.5 v 16 c 0,0.275 -0.224,0.5 -0.5,0.5 z m 64,16 c -9.098,0 -16.5,-7.402 -16.5,-16.5 0,-9.098 7.402,-16.5 16.5,-16.5 9.098,0 16.5,7.402 16.5,16.5 0,9.098 -7.402,16.5 -16.5,16.5 z m 30.591,-24 c -3.374,-13.759 -15.806,-24 -30.591,-24 -0.168,0 -0.333,0.01 -0.5,0.013 V 44 h 36.596 c 3.783,0 7.055,2.435 8.142,6.058 l 0.882,2.942002 h -29.12 c -4.142,0 -7.5,3.357 -7.5,7.5 v 32 c 0,17.368998 14.131,31.499998 31.5,31.499998 h 24.5 v 9 h -8.5 c -4.142,0 -7.5,3.357 -7.5,7.5 0,4.143 3.358,7.5 7.5,7.5 h 8.5 v 17 z"
     id="path2"
     inkscape:connector-curvature="0" /><g
     id="g4"
     transform="translate(0,-259)" /><g
     id="g6"
     transform="translate(0,-259)" /><g
     id="g8"
     transform="translate(0,-259)" /><g
     id="g10"
     transform="translate(0,-259)" /><g
     id="g12"
     transform="translate(0,-259)" /><g
     id="g14"
     transform="translate(0,-259)" /><g
     id="g16"
     transform="translate(0,-259)" /><g
     id="g18"
     transform="translate(0,-259)" /><g
     id="g20"
     transform="translate(0,-259)" /><g
     id="g22"
     transform="translate(0,-259)" /><g
     id="g24"
     transform="translate(0,-259)" /><g
     id="g26"
     transform="translate(0,-259)" /><g
     id="g28"
     transform="translate(0,-259)" /><g
     id="g30"
     transform="translate(0,-259)" /><g
     id="g32"
     transform="translate(0,-259)" /></svg>