<?xml version="1.0" encoding="UTF-8" standalone="no"?>
<!-- Created with Inkscape (http://www.inkscape.org/) -->
<svg
   xmlns:svg="http://www.w3.org/2000/svg"
   xmlns="http://www.w3.org/2000/svg"
   version="1.0"
   width="596.08002"
   height="171.89"
   id="svg2">
  <defs
     id="defs4">
    <clipPath
       id="clipPath2608">
      <path
         d="M 443.76,760.52 L 505.32,760.52 L 505.32,799.46 L 443.76,799.46 L 443.76,760.52 z"
         id="path2610" />
    </clipPath>
    <clipPath
       id="clipPath2592">
      <path
         d="M 380.1,760.52 L 450,760.52 L 450,799.46 L 380.1,799.46 L 380.1,760.52 z"
         id="path2594" />
    </clipPath>
    <clipPath
       id="clipPath2576">
      <path
         d="M 364.02,760.52 L 387.06,760.52 L 387.06,799.46 L 364.02,799.46 L 364.02,760.52 z"
         id="path2578" />
    </clipPath>
  </defs>
  <g
     transform="translate(2.3250011,-0.1103011)"
     id="layer1">
    <g
       transform="matrix(2.354705,0,0,2.354705,-278.53274,10.906347)"
       id="g3033">
      <path
         d="M 133.24748,5.4375 C 128.52748,9.88625 124.84748,15.92375 123.57248,22.3125 C 134.09123,33.305 141.64498,46.22625 145.84748,60.8625 C 152.11748,62.86 158.96998,62.8225 165.27248,60.9375 C 169.30498,46.48 177.07873,33.0625 187.54748,22.3125 C 186.11623,15.9075 182.71998,9.94625 177.87248,5.5125 C 163.28998,9.20125 147.80998,9.1975 133.24748,5.4375"
         id="path2414"
         style="fill:#06185d;fill-opacity:1;fill-rule:evenodd;stroke:none" />
      <path
         d="M 124.84748,21.0375 L 125.29748,22.6875 C 126.73123,16.56375 129.86623,11.01375 134.52248,6.7875 L 132.04748,4.0875 C 129.53123,6.48625 127.38873,9.14 125.59748,12.1125 C 124.78623,13.6525 123.91998,15.18375 123.34748,16.8375 L 122.89748,18.0375 L 122.67248,18.7125 L 122.44748,19.3125 L 122.29748,19.9125 L 122.07248,20.5875 L 121.92248,21.2625 L 121.77248,21.8625 L 122.22248,23.5125 L 121.77248,21.8625 L 121.54748,22.8375 L 122.22248,23.5125"
         id="path2416"
         style="fill:#06185d;fill-opacity:1;fill-rule:nonzero;stroke:none" />
      <path
         d="M 146.37248,59.1375 L 147.57248,60.3375 C 143.31998,45.47375 135.58623,32.15125 124.84748,21.0375 L 122.22248,23.5125 C 127.27623,28.80375 131.79248,34.62875 135.42248,40.9875 C 137.26623,44.15875 138.95998,47.425 140.37248,50.8125 L 140.89748,52.0875 L 141.42248,53.4375 L 141.94748,54.7125 L 142.39748,55.9875 L 143.29748,58.6875 L 143.67248,59.9625 L 144.04748,61.3875 L 145.24748,62.5875 L 144.04748,61.3875 L 144.34748,62.2875 L 145.24748,62.5875"
         id="path2418"
         style="fill:#06185d;fill-opacity:1;fill-rule:nonzero;stroke:none" />
      <path
         d="M 155.52248,60.5625 C 152.10373,60.46125 149.65998,60.1475 146.37248,59.1375 L 145.24748,62.5875 C 148.48873,63.59 152.12998,64.19375 155.52248,64.1625"
         id="path2420"
         style="fill:#06185d;fill-opacity:1;fill-rule:nonzero;stroke:none" />
      <path
         d="M 163.54748,60.4125 L 164.74748,59.1375 C 162.00123,60.2025 158.45248,60.4525 155.52248,60.5625 L 155.52248,64.1625 C 157.28123,64.195 159.02873,64.0125 160.77248,63.7875 L 161.44748,63.7125 L 162.12248,63.5625 L 162.72248,63.4125 L 163.32248,63.3375 L 163.99748,63.1875 L 164.59748,62.9625 L 165.79748,62.6625 L 166.99748,61.3875 L 165.79748,62.6625 L 166.77248,62.3625 L 166.99748,61.3875"
         id="path2422"
         style="fill:#06185d;fill-opacity:1;fill-rule:nonzero;stroke:none" />
      <path
         d="M 185.74748,22.6875 L 186.19748,21.0375 C 175.49623,32.135 167.72498,45.5675 163.54748,60.4125 L 166.99748,61.3875 C 169.16623,53.95625 171.82248,47.7225 175.62248,40.9875 C 177.47873,37.83 179.51748,34.78125 181.69748,31.8375 L 182.52248,30.7875 L 183.42248,29.6625 L 184.24748,28.6125 L 185.14748,27.5625 L 186.04748,26.5875 L 186.94748,25.5375 L 187.92248,24.5625 L 188.82248,23.5125 L 189.27248,21.8625 L 188.82248,23.5125 L 189.49748,22.8375 L 189.27248,21.8625"
         id="path2424"
         style="fill:#06185d;fill-opacity:1;fill-rule:nonzero;stroke:none" />
      <path
         d="M 178.32248,7.2375 L 176.67248,6.8625 C 181.07248,10.72875 184.58873,16.96125 185.74748,22.6875 L 189.27248,21.8625 C 188.57248,18.45 187.21123,15.2225 185.52248,12.1875 C 184.76373,10.955 183.59998,8.9675 182.59748,7.9875 L 182.22248,7.4625 L 181.77248,6.9375 L 181.39748,6.4875 L 180.94748,5.9625 L 179.14748,4.1625 L 177.42248,3.7875 L 179.14748,4.1625 L 178.39748,3.5625 L 177.42248,3.7875"
         id="path2426"
         style="fill:#06185d;fill-opacity:1;fill-rule:nonzero;stroke:none" />
      <path
         d="M 155.52248,10.0875 C 163.19998,10.0725 170.89123,9.1875 178.32248,7.2375 L 177.42248,3.7875 C 170.05498,5.595 163.09373,6.395 155.52248,6.4875"
         id="path2428"
         style="fill:#06185d;fill-opacity:1;fill-rule:nonzero;stroke:none" />
      <path
         d="M 134.52248,6.7875 L 132.87248,7.2375 C 140.28748,9.01875 147.88748,10.125 155.52248,10.0875 L 155.52248,6.4875 C 151.71498,6.42125 148.20873,6.2125 144.42248,5.7375 C 142.62123,5.44875 140.78998,5.26625 139.02248,4.8375 L 138.34748,4.7625 L 136.99748,4.4625 L 136.39748,4.3125 L 133.69748,3.7125 L 132.04748,4.0875 L 133.69748,3.7125 L 132.79748,3.4875 L 132.04748,4.0875"
         id="path2430"
         style="fill:#06185d;fill-opacity:1;fill-rule:nonzero;stroke:none" />
      <path
         d="M 127.47248,29.5125 C 127.52748,13.9625 139.97123,1.55375 155.52248,1.4625 C 170.95373,1.465 183.70373,14.0575 183.57248,29.5125 C 183.79123,44.9325 170.88498,57.65125 155.52248,57.6375 C 140.05248,57.5725 127.42623,45.01125 127.47248,29.5125"
         id="path2432"
         style="fill:#06185d;fill-opacity:1;fill-rule:evenodd;stroke:none" />
      <path
         d="M 155.52248,-0.3375 C 139.05498,-0.33375 125.66373,13.05 125.67248,29.5125 L 129.27248,29.5125 C 129.35998,15.00125 140.99248,3.32875 155.52248,3.2625"
         id="path2434"
         style="fill:#06185d;fill-opacity:1;fill-rule:nonzero;stroke:none" />
      <path
         d="M 185.44748,29.5125 C 185.29373,12.9625 172.10623,-0.30875 155.52248,-0.3375 L 155.52248,3.2625 C 169.96498,3.2475 181.85498,15.05125 181.77248,29.5125"
         id="path2436"
         style="fill:#06185d;fill-opacity:1;fill-rule:nonzero;stroke:none" />
      <path
         d="M 155.52248,59.4375 C 172.21748,59.31875 185.27998,46.1575 185.44748,29.5125 L 181.77248,29.5125 C 181.93373,43.9375 169.95373,55.9225 155.52248,55.7625"
         id="path2438"
         style="fill:#06185d;fill-opacity:1;fill-rule:nonzero;stroke:none" />
      <path
         d="M 125.67248,29.5125 C 125.67373,46.03875 138.95623,59.35875 155.52248,59.4375 L 155.52248,55.7625 C 141.06248,55.88875 129.24498,43.9275 129.27248,29.5125"
         id="path2440"
         style="fill:#06185d;fill-opacity:1;fill-rule:nonzero;stroke:none" />
      <path
         d="M 123.87248,22.3875 L 123.42248,22.3875 L 124.32248,22.3875 L 123.87248,22.3875"
         id="path2442"
         style="fill:#000000;fill-opacity:1;fill-rule:nonzero;stroke:none" />
      <path
         d="M 145.92248,60.5625 L 145.92248,60.5625"
         id="path2444"
         style="fill:#000000;fill-opacity:1;fill-rule:nonzero;stroke:none" />
      <path
         d="M 177.64748,5.7375 L 177.64748,5.7375"
         id="path2446"
         style="fill:#000000;fill-opacity:1;fill-rule:nonzero;stroke:none" />
      <path
         d="M 133.09748,6.0375 L 133.39748,6.1875 L 133.47248,6.1875 L 133.47248,5.2875 L 133.39748,5.2875 L 133.77248,5.4375 L 133.69748,5.4375"
         id="path2448"
         style="fill:#000000;fill-opacity:1;fill-rule:nonzero;stroke:none" />
      <path
         d="M 124.24748,21.6375 L 124.47248,22.4625 C 125.90998,16.07875 129.19498,10.58375 133.92248,6.1125 L 132.64748,4.7625 C 130.10123,7.12 128.12373,9.58 126.34748,12.5625 C 125.45123,14.205 124.84498,15.42125 124.09748,17.1375 L 123.87248,17.7375 L 123.72248,18.3375 L 123.49748,18.9375 L 123.27248,19.6125 L 123.12248,20.2125 L 122.89748,20.8125 L 122.74748,21.4875 L 122.59748,22.0875 L 122.82248,22.9125 L 122.59748,22.0875 L 122.59748,22.5375 L 122.74748,22.8375 L 122.97248,23.0625 L 123.34748,23.2125 L 123.72248,23.2125 L 124.02248,23.1375 L 124.24748,22.8375 L 124.47248,22.4625"
         id="path2450"
         style="fill:#cdcdcd;fill-opacity:1;fill-rule:nonzero;stroke:none" />
      <path
         d="M 146.07248,59.9625 L 146.74748,60.6375 C 142.51623,45.83375 134.91373,32.73375 124.24748,21.6375 L 122.82248,22.9125 C 127.90248,28.1375 132.52873,34.225 136.17248,40.5375 C 138.05248,43.75625 139.67998,47.1125 141.19748,50.5125 L 142.24748,53.0625 L 142.69748,54.4125 L 143.22248,55.7625 L 143.67248,57.0375 L 144.12248,58.3875 L 144.87248,61.0875 L 145.54748,61.7625 L 144.87248,61.0875 C 145.44873,62.40875 146.92373,61.735 146.74748,60.6375"
         id="path2452"
         style="fill:#cdcdcd;fill-opacity:1;fill-rule:nonzero;stroke:none" />
      <path
         d="M 155.52248,61.3875 C 152.32123,61.3925 149.13748,60.88625 146.07248,59.9625 L 145.54748,61.7625 C 148.76373,62.785 152.14623,63.31375 155.52248,63.2625"
         id="path2454"
         style="fill:#cdcdcd;fill-opacity:1;fill-rule:nonzero;stroke:none" />
      <path
         d="M 164.37248,60.6375 L 164.97248,60.0375 C 161.90123,60.9275 158.72748,61.46125 155.52248,61.3875 L 155.52248,63.2625 C 157.02998,63.26125 159.18373,63.2825 160.62248,62.8875 L 161.29748,62.8125 L 161.89748,62.7375 L 162.49748,62.5875 L 163.17248,62.4375 L 165.57248,61.8375 L 166.17248,61.1625 L 165.57248,61.8375 L 165.94748,61.6125 L 166.17248,61.3125 L 166.24748,60.9375 L 166.17248,60.6375 L 166.02248,60.3375 L 165.79748,60.1125 L 165.42248,59.9625 L 164.97248,60.0375"
         id="path2456"
         style="fill:#cdcdcd;fill-opacity:1;fill-rule:nonzero;stroke:none" />
      <path
         d="M 186.64748,22.4625 L 186.87248,21.6375 C 176.23998,32.4625 168.50873,46.0525 164.37248,60.6375 L 166.17248,61.1625 C 168.22873,53.9725 171.14498,46.9725 174.94748,40.5375 C 176.71123,37.3825 178.86873,34.21625 181.02248,31.3125 L 181.84748,30.1875 L 182.74748,29.1375 L 183.57248,28.0875 L 185.37248,25.9875 L 186.34748,24.9375 L 187.24748,23.9625 L 188.22248,22.9125 L 188.44748,22.0875 L 188.22248,22.9125 L 188.44748,22.6125 L 188.52248,22.2375 L 188.37248,21.9375 L 188.14748,21.6375 L 187.92248,21.4125 L 187.54748,21.3375 L 187.17248,21.4125 L 186.87248,21.6375"
         id="path2458"
         style="fill:#cdcdcd;fill-opacity:1;fill-rule:nonzero;stroke:none" />
      <path
         d="M 178.09748,6.4125 L 177.27248,6.1875 C 182.09498,10.7725 185.04623,16.005 186.64748,22.4625 L 188.44748,22.0875 C 187.71873,18.77125 186.49248,15.5675 184.77248,12.6375 C 183.98373,11.1525 182.95873,9.82875 181.92248,8.5125 L 181.54748,7.9875 L 181.17248,7.5375 L 180.72248,7.0125 L 180.27248,6.5625 L 179.89748,6.1125 L 178.99748,5.2125 L 178.54748,4.8375 L 177.64748,4.6125 L 178.54748,4.8375 L 178.17248,4.6125 L 177.79748,4.5375 L 177.49748,4.6875 L 177.19748,4.9125 L 176.97248,5.2125 L 176.89748,5.5125 L 176.97248,5.8875 L 177.27248,6.1875"
         id="path2460"
         style="fill:#cdcdcd;fill-opacity:1;fill-rule:nonzero;stroke:none" />
      <path
         d="M 155.52248,9.1875 C 163.12248,9.235 170.74248,8.31 178.09748,6.4125 L 177.64748,4.6125 C 170.41373,6.41375 162.97873,7.34625 155.52248,7.3125"
         id="path2462"
         style="fill:#cdcdcd;fill-opacity:1;fill-rule:nonzero;stroke:none" />
      <path
         d="M 133.92248,6.1125 L 133.02248,6.3375 C 140.17373,8.19375 148.12998,9.2725 155.52248,9.1875 L 155.52248,7.3125 C 151.78748,7.335 148.03873,7.10375 144.34748,6.5625 C 142.52498,6.41625 140.67248,6.065 138.87248,5.7375 C 136.83248,5.51 134.65498,4.31875 132.64748,4.7625 L 133.47248,4.5375 L 133.09748,4.5375 L 132.72248,4.6125 L 132.49748,4.9125 L 132.34748,5.2125 L 132.34748,5.5875 L 132.42248,5.8875 L 132.64748,6.1875 L 133.02248,6.3375"
         id="path2464"
         style="fill:#cdcdcd;fill-opacity:1;fill-rule:nonzero;stroke:none" />
      <path
         d="M 155.52248,0.5625 C 139.58748,0.4325 126.52748,13.6 126.49748,29.5125 L 128.44748,29.5125 C 128.31498,14.6775 140.69498,2.30875 155.52248,2.4375"
         id="path2466"
         style="fill:#cdcdcd;fill-opacity:1;fill-rule:nonzero;stroke:none" />
      <path
         d="M 184.54748,29.5125 C 184.64873,13.6425 171.40623,0.365 155.52248,0.5625 L 155.52248,2.4375 C 170.42623,2.32125 182.69623,14.6275 182.67248,29.5125"
         id="path2468"
         style="fill:#cdcdcd;fill-opacity:1;fill-rule:nonzero;stroke:none" />
      <path
         d="M 155.52248,58.5375 C 171.51248,58.61125 184.62623,45.5125 184.54748,29.5125 L 182.67248,29.5125 C 182.74498,44.41875 170.41123,56.77375 155.52248,56.6625"
         id="path2470"
         style="fill:#cdcdcd;fill-opacity:1;fill-rule:nonzero;stroke:none" />
      <path
         d="M 126.49748,29.5125 C 126.57498,45.61625 139.48373,58.52375 155.52248,58.5375 L 155.52248,56.6625 C 140.66373,56.75625 128.29623,44.39625 128.44748,29.5125"
         id="path2472"
         style="fill:#cdcdcd;fill-opacity:1;fill-rule:nonzero;stroke:none" />
      <path
         d="M 145.77248,28.5375 C 146.75748,28.42125 147.22748,28.41125 148.17248,28.7625 C 148.88373,29.00625 149.56998,29.46375 149.97248,30.1125 C 146.06623,27.84 140.85748,34.31125 137.82248,27.4875 C 139.88873,29.04 143.38873,29.28 145.77248,28.5375"
         id="path2474"
         style="fill:#d90033;fill-opacity:1;fill-rule:evenodd;stroke:none" />
      <path
         d="M 149.82248,30.5625 L 150.42248,29.8875 C 149.37873,28.31375 147.49123,27.82125 145.69748,28.0875 L 145.84748,29.0625 C 147.20248,28.775 148.84748,29.16625 149.59748,30.4125 L 150.19748,29.7375 L 149.59748,30.4125 L 149.74748,30.5625 L 150.12248,30.5625 L 150.27248,30.4875 L 150.42248,30.4125 L 150.49748,30.2625 L 150.49748,30.0375 L 150.42248,29.8875"
         id="path2476"
         style="fill:#cdcdcd;fill-opacity:1;fill-rule:nonzero;stroke:none" />
      <path
         d="M 139.02248,30.1125 L 139.02248,30.0375 C 142.62498,33.2675 146.18748,28.65 149.82248,30.5625 L 150.19748,29.7375 C 146.38498,27.54875 142.79623,32.12 139.54748,29.2875 L 139.62248,29.3625 L 139.39748,29.2125 L 139.24748,29.2125 L 139.09748,29.2875 L 138.94748,29.3625 L 138.87248,29.5125 L 138.79748,29.7375 L 138.87248,29.8875 L 139.02248,30.0375"
         id="path2478"
         style="fill:#cdcdcd;fill-opacity:1;fill-rule:nonzero;stroke:none" />
      <path
         d="M 138.12248,27.1125 L 137.37248,27.7125 C 138.08748,28.89 137.83373,29.025 139.02248,30.1125 L 139.54748,29.2875 C 138.91623,28.7675 138.59248,28.08625 138.27248,27.3375 L 137.52248,27.8625 L 138.27248,27.3375 L 138.12248,27.1125 L 137.97248,27.0375 L 137.82248,27.0375 L 137.59748,27.1125 L 137.52248,27.1875 L 137.37248,27.3375 L 137.37248,27.7125"
         id="path2480"
         style="fill:#cdcdcd;fill-opacity:1;fill-rule:nonzero;stroke:none" />
      <path
         d="M 145.69748,28.0875 L 145.62248,28.0875 L 144.79748,28.3125 L 143.97248,28.3875 L 143.22248,28.4625 L 142.47248,28.4625 L 141.79748,28.3875 L 140.59748,28.2375 L 140.07248,28.0875 L 139.62248,27.9375 L 139.24748,27.7875 L 138.87248,27.5625 L 138.64748,27.4125 L 138.34748,27.3375 L 138.19748,27.1875 L 138.12248,27.1875 L 138.12248,27.1125 L 137.52248,27.8625 C 139.73373,29.5 143.24623,29.825 145.84748,28.9875 L 145.84748,29.0625 L 145.84748,28.9875 L 146.07248,28.9125 L 146.14748,28.7625 L 146.22248,28.6125 L 146.22248,28.4625 L 146.14748,28.3125 L 145.99748,28.1625 L 145.84748,28.0875 L 145.62248,28.0875"
         id="path2482"
         style="fill:#cdcdcd;fill-opacity:1;fill-rule:nonzero;stroke:none" />
      <path
         d="M 150.34748,21.7125 C 149.97873,22.045 149.51748,22.59125 149.37248,23.0625 L 149.29748,23.0625 L 149.14748,22.9875 L 148.92248,22.8375 L 148.17248,22.5375 L 147.64748,22.3875 L 147.19748,22.3125 L 146.59748,22.3125 C 144.24998,22.34875 143.01248,25.24375 142.69748,27.1875 C 144.06248,26.3 146.05248,25.3475 147.57248,26.4375 L 147.57248,26.5125 L 147.64748,26.5125 L 147.72248,26.5875 L 147.79748,26.7375 L 147.94748,26.8125 L 148.02248,26.9625 C 148.47873,27.43625 148.73873,27.42625 149.22248,27.7875 C 149.78998,28.0975 150.71873,28.18625 151.32248,28.5375 C 151.94873,28.96 152.20123,28.875 152.14748,29.6625 C 149.80623,32.185 148.17623,32.92 145.09748,31.6125 L 145.09748,31.7625 L 145.17248,31.9125 L 145.17248,32.0625 L 145.24748,32.2125 C 145.27873,32.81125 145.71623,33.3125 146.22248,33.6375 C 146.99873,34.0525 147.73748,34.2225 148.62248,34.1625 L 148.77248,34.2375 L 149.07248,34.2375 L 149.29748,34.1625 L 149.82248,34.1625 L 149.74748,34.1625 L 149.59748,34.2375 L 149.44748,34.3125 L 149.14748,34.4625 L 148.84748,34.6875 L 148.54748,34.9125 L 147.87248,35.5875 C 146.72623,37.055 146.53248,38.5575 147.19748,40.3125 C 148.00748,39.3075 149.00498,38.52125 150.27248,38.1375 L 150.19748,38.1375 L 150.19748,38.2125 L 150.12248,38.2875 L 150.04748,38.3625 L 149.97248,38.5125 L 149.82248,38.6625 L 149.74748,38.8125 L 149.59748,39.0375 C 149.05748,40.06 149.01623,40.21625 148.69748,41.3625 C 148.20123,44.2825 149.52498,46.54625 151.69748,48.4125 C 151.74873,46.64 152.04623,43.5725 153.42248,42.3375 L 153.42248,42.4125 L 153.49748,42.4875 L 153.49748,42.7125 L 153.57248,42.9375 L 153.64748,43.2375 L 153.72248,43.6125 L 153.79748,43.9875 C 154.08873,45.48 154.13623,46.14875 154.09748,47.6625 L 154.09748,48.1125 L 154.02248,48.2625 L 154.02248,48.8625 L 153.94748,49.0875 C 153.91748,49.72375 153.76248,50.16125 153.49748,50.7375 C 158.35623,50.3675 159.75498,46.335 158.59748,41.9625 L 158.59748,42.0375 C 158.96248,41.99 159.73998,42.68125 159.94748,42.9375 C 160.91998,44.01375 161.05248,45.53375 160.84748,46.9125 L 160.92248,46.8375 L 161.14748,46.7625 L 161.44748,46.5375 L 161.82248,46.3125 L 163.09748,45.0375 L 163.54748,44.4375 C 165.16998,42.1075 164.58998,39.25375 163.09748,37.0125 C 164.78623,37.28375 165.76248,38.24 166.24748,39.9375 L 166.24748,39.8625 L 166.32248,39.7875 L 166.39748,39.7125 L 166.62248,39.2625 L 166.69748,39.0375 C 166.86873,38.41 167.27748,37.2375 167.22248,36.6375 C 167.54748,33.9425 166.01998,31.28625 163.99748,29.5875 L 164.07248,29.5125 L 165.19748,29.5125 C 166.02248,29.67125 166.83873,30.04625 167.29748,30.7875 C 167.15873,28.34875 165.54248,25.84625 163.32248,24.7875 C 161.91873,24.10375 161.79748,21.9525 160.77248,21.3375 C 158.54373,20.23375 152.03498,19.54375 150.34748,21.7125"
         id="path2484"
         style="fill:#d90033;fill-opacity:1;fill-rule:evenodd;stroke:none" />
      <path
         d="M 149.14748,23.5125 L 149.82248,23.2125 L 149.89748,23.0625 L 149.97248,22.8375 L 150.12248,22.6875 L 150.27248,22.4625 L 150.64748,22.0875 L 150.04748,21.4125 L 149.97248,21.4125 L 149.89748,21.4875 L 149.52248,21.8625 L 149.37248,22.0875 L 149.22248,22.3875 L 149.07248,22.6125 L 148.92248,22.9875 L 149.67248,22.6875 L 149.14748,23.5125 L 149.67248,23.8875 L 149.82248,23.2125"
         id="path2486"
         style="fill:#cdcdcd;fill-opacity:1;fill-rule:nonzero;stroke:none" />
      <path
         d="M 142.39748,26.8125 L 143.14748,27.2625 C 143.50998,25.3925 144.43748,22.9 146.67248,22.7625 L 147.12248,22.7625 L 147.57248,22.8375 L 148.02248,22.9875 L 148.39748,23.1375 L 148.69748,23.2875 L 148.92248,23.3625 L 149.07248,23.4375 L 149.14748,23.5125 L 149.67248,22.6875 L 149.59748,22.6875 L 149.37248,22.5375 L 149.07248,22.3875 L 148.69748,22.2375 L 147.79748,21.9375 L 147.19748,21.8625 L 146.59748,21.8625 C 143.91623,21.95125 142.65123,24.8675 142.17248,27.1125 L 142.92248,27.5625 L 142.17248,27.1125 L 141.94748,28.3125 L 142.92248,27.5625"
         id="path2488"
         style="fill:#cdcdcd;fill-opacity:1;fill-rule:nonzero;stroke:none" />
      <path
         d="M 147.94748,26.1375 C 147.14998,25.39375 145.69873,25.245 144.72248,25.6875 L 144.27248,25.8375 L 143.52248,26.1375 L 142.92248,26.4375 L 142.69748,26.5875 L 142.54748,26.7375 L 142.47248,26.7375 L 142.39748,26.8125 L 142.92248,27.5625 L 142.99748,27.5625 L 143.07248,27.4875 L 143.22248,27.4125 L 143.67248,27.1125 L 144.57248,26.6625 C 145.40248,26.49 146.56248,26.1675 147.27248,26.8125 L 147.12248,26.6625"
         id="path2490"
         style="fill:#cdcdcd;fill-opacity:1;fill-rule:nonzero;stroke:none" />
      <path
         d="M 150.19748,27.6375 C 149.03873,27.36625 149.39748,27.2425 148.62248,26.8875 L 148.47248,26.7375 L 148.39748,26.5875 L 148.24748,26.5125 L 148.17248,26.4375 L 148.09748,26.2875 L 148.02248,26.2125 L 147.94748,26.2125 L 147.94748,26.1375 L 147.12248,26.6625 L 147.19748,26.7375 L 147.27248,26.8875 L 147.34748,26.9625 L 147.49748,27.0375 L 147.57248,27.1875 L 147.72248,27.3375 L 147.87248,27.4875 C 148.57373,27.9775 149.12623,28.34125 149.97248,28.5375"
         id="path2492"
         style="fill:#cdcdcd;fill-opacity:1;fill-rule:nonzero;stroke:none" />
      <path
         d="M 152.59748,29.8125 L 152.67248,29.5125 L 152.59748,29.3625 L 152.59748,29.2125 L 152.52248,28.8375 L 152.29748,28.5375 L 151.99748,28.3125 L 151.54748,28.0875 L 150.94748,27.8625 L 150.19748,27.6375 L 149.97248,28.5375 L 150.64748,28.7625 L 151.17248,28.9875 L 151.47248,29.1375 L 151.69748,29.3625 L 151.69748,29.7375 L 151.77248,29.4375 L 152.59748,29.8125 L 152.67248,29.6625 L 152.67248,29.5125"
         id="path2494"
         style="fill:#cdcdcd;fill-opacity:1;fill-rule:nonzero;stroke:none" />
      <path
         d="M 150.19748,31.9875 C 150.61998,31.70625 152.52373,30.38 152.59748,29.8125 L 151.77248,29.4375 L 151.69748,29.4375 L 151.62248,29.6625 L 151.47248,29.8125 L 151.17248,30.0375 L 150.79748,30.3375 L 150.34748,30.7125 L 149.67248,31.1625"
         id="path2496"
         style="fill:#cdcdcd;fill-opacity:1;fill-rule:nonzero;stroke:none" />
      <path
         d="M 145.62248,31.6875 L 144.94748,32.0625 C 146.97498,32.8 148.16748,33.14125 150.19748,31.9875 L 149.67248,31.1625 C 148.15873,32.21125 146.82123,31.70625 145.24748,31.1625 L 144.64748,31.6125 L 145.24748,31.1625 L 144.64748,31.0125 L 144.64748,31.6125"
         id="path2498"
         style="fill:#cdcdcd;fill-opacity:1;fill-rule:nonzero;stroke:none" />
      <path
         d="M 148.54748,33.7125 C 147.20248,33.7925 145.61373,33.2175 145.62248,31.6875 L 144.64748,31.6125 L 144.64748,31.9875 L 144.72248,32.1375 L 144.79748,32.3625 L 144.79748,32.5875 L 145.09748,33.1875 C 145.92873,34.4275 147.16998,34.56125 148.54748,34.6875 L 148.47248,34.6875 L 148.54748,33.7125"
         id="path2500"
         style="fill:#cdcdcd;fill-opacity:1;fill-rule:nonzero;stroke:none" />
      <path
         d="M 149.97248,34.6125 L 149.74748,33.7125 C 149.34748,33.7125 148.94748,33.7125 148.54748,33.7125 L 148.47248,34.6875 L 149.59748,34.6875 L 149.82248,34.6125 L 149.59748,33.7125 L 149.97248,34.6125 L 152.59748,33.4125 L 149.74748,33.7125"
         id="path2502"
         style="fill:#cdcdcd;fill-opacity:1;fill-rule:nonzero;stroke:none" />
      <path
         d="M 146.82248,40.0125 L 147.64748,40.1625 C 146.60873,37.96 147.82748,35.51375 149.97248,34.6125 L 149.59748,33.7125 L 149.52248,33.7125 L 149.44748,33.7875 L 149.22248,33.9375 L 148.92248,34.0875 L 148.62248,34.3125 L 147.87248,34.9125 L 147.57248,35.2875 C 146.23873,36.64375 146.08623,38.74375 146.74748,40.4625 L 147.57248,40.6125 L 146.74748,40.4625 L 147.04748,41.2125 L 147.57248,40.6125"
         id="path2504"
         style="fill:#cdcdcd;fill-opacity:1;fill-rule:nonzero;stroke:none" />
      <path
         d="M 150.57248,38.4375 L 150.12248,37.6875 C 148.74748,38.00375 147.71373,39.03 146.82248,40.0125 L 147.57248,40.6125 L 147.64748,40.5375 L 147.64748,40.4625 L 147.79748,40.3875 L 147.87248,40.2375 L 148.39748,39.7125 L 148.62248,39.5625 C 149.24748,39.0475 149.58498,38.87 150.34748,38.5875 L 149.89748,37.8375 L 150.57248,38.4375 L 151.54748,37.3125 L 150.12248,37.6875"
         id="path2506"
         style="fill:#cdcdcd;fill-opacity:1;fill-rule:nonzero;stroke:none" />
      <path
         d="M 151.24748,48.4125 L 151.99748,48.0375 C 149.84248,46.14375 148.73623,44.33625 149.14748,41.4375 C 149.55998,40.49375 149.36748,40.325 150.04748,39.2625 L 150.12248,39.0375 L 150.34748,38.8125 L 150.42248,38.6625 L 150.49748,38.5875 L 150.57248,38.5125 L 150.57248,38.4375 L 149.89748,37.8375 C 146.96748,41.49 147.77998,45.805 151.39748,48.7875 L 152.22248,48.4125 L 151.39748,48.7875 L 152.22248,49.3875 L 152.22248,48.4125"
         id="path2508"
         style="fill:#cdcdcd;fill-opacity:1;fill-rule:nonzero;stroke:none" />
      <path
         d="M 153.87248,42.1875 L 153.12248,41.9625 C 151.65873,43.12875 151.25248,46.61 151.24748,48.4125 L 152.22248,48.4125 C 152.13373,46.98 152.58248,43.6225 153.72248,42.7125 L 152.97248,42.4875 L 153.87248,42.1875 L 153.72248,41.5125 L 153.12248,41.9625"
         id="path2510"
         style="fill:#cdcdcd;fill-opacity:1;fill-rule:nonzero;stroke:none" />
      <path
         d="M 154.54748,48.1125 C 154.67748,46.76 154.56748,45.7025 154.32248,44.3625 L 154.24748,43.9125 L 154.17248,43.5375 L 154.09748,43.1625 L 154.02248,42.7875 L 154.02248,42.5625 L 153.87248,42.2625 L 153.87248,42.1875 L 152.97248,42.4875 C 153.20373,43.21625 153.37373,44.195 153.49748,44.9625 L 153.57248,45.4125 L 153.57248,45.8625 L 153.64748,46.3125 L 153.64748,47.6625 L 153.57248,47.9625 L 153.57248,48.0375 L 153.57248,47.9625 L 153.57248,48.0375"
         id="path2512"
         style="fill:#cdcdcd;fill-opacity:1;fill-rule:nonzero;stroke:none" />
      <path
         d="M 153.49748,50.2875 L 153.87248,50.9625 C 154.34998,50.4 154.49498,48.8525 154.54748,48.1125 L 153.57248,48.0375 C 153.61373,48.7925 153.44123,49.86375 153.04748,50.5125 L 153.49748,51.2625 L 153.04748,50.5125 L 152.67248,51.2625 L 153.49748,51.2625"
         id="path2514"
         style="fill:#cdcdcd;fill-opacity:1;fill-rule:nonzero;stroke:none" />
      <path
         d="M 158.74748,41.5125 L 158.14748,42.1125 C 159.27998,46.2525 157.97998,49.79625 153.49748,50.2875 L 153.49748,51.2625 C 158.66748,50.72 160.28123,46.7175 159.04748,41.8875 L 158.44748,42.4125 L 158.74748,41.5125 L 157.92248,41.2875 L 158.14748,42.1125"
         id="path2516"
         style="fill:#cdcdcd;fill-opacity:1;fill-rule:nonzero;stroke:none" />
      <path
         d="M 160.62248,46.4625 L 161.29748,46.9875 C 161.53748,45.1825 161.39248,44.1025 160.32248,42.6375 L 160.02248,42.4125 L 159.72248,42.1125 L 159.27248,41.8125 L 159.12248,41.6625 L 158.89748,41.5875 L 158.82248,41.5875 L 158.74748,41.5125 L 158.44748,42.4125 C 158.87873,42.7425 159.17373,42.72875 159.57248,43.2375 C 160.45498,44.1925 160.59873,45.60125 160.39748,46.8375 L 161.07248,47.2875 L 160.39748,46.8375 L 160.24748,47.7375 L 161.07248,47.2875"
         id="path2518"
         style="fill:#cdcdcd;fill-opacity:1;fill-rule:nonzero;stroke:none" />
      <path
         d="M 163.09748,36.5625 L 162.64748,37.3125 C 164.12748,39.24 164.61123,42.1375 163.17248,44.2125 L 162.79748,44.7375 L 162.34748,45.1875 L 161.89748,45.5625 L 161.52248,45.9375 L 161.14748,46.1625 L 160.84748,46.3125 L 160.69748,46.4625 L 160.62248,46.4625 L 161.07248,47.2875 L 161.14748,47.2875 L 161.37248,47.1375 L 161.67248,46.9125 L 162.12248,46.6875 L 162.57248,46.3125 L 163.02248,45.8625 L 163.47248,45.3375 L 163.92248,44.7375 C 165.67623,42.13875 165.06123,39.3075 163.47248,36.7875 L 163.09748,37.5375 L 163.09748,36.5625 L 162.19748,36.5625 L 162.64748,37.3125"
         id="path2520"
         style="fill:#cdcdcd;fill-opacity:1;fill-rule:nonzero;stroke:none" />
      <path
         d="M 165.87248,39.7125 L 166.69748,39.7875 C 166.58123,38.895 165.64248,37.6575 164.89748,37.1625 C 164.40998,36.87875 163.65998,36.56875 163.09748,36.5625 L 163.09748,37.5375 C 164.44998,37.54625 165.53248,38.82625 165.79748,40.0875 L 166.62248,40.1625 L 165.79748,40.0875 L 166.02248,41.0625 L 166.62248,40.1625"
         id="path2522"
         style="fill:#cdcdcd;fill-opacity:1;fill-rule:nonzero;stroke:none" />
      <path
         d="M 163.84748,29.0625 L 163.69748,29.8875 L 164.14748,30.4125 L 164.59748,30.8625 L 165.34748,31.7625 L 165.64748,32.1375 L 166.09748,33.0375 C 166.58998,34.0225 166.86248,35.1525 166.77248,36.2625 C 166.85123,37.0925 166.53248,37.875 166.32248,38.6625 L 166.24748,38.8125 L 166.17248,39.0375 L 165.94748,39.4875 L 165.94748,39.5625 L 165.87248,39.6375 L 165.87248,39.7125 L 166.62248,40.1625 L 166.69748,40.1625 L 166.69748,40.0125 L 166.77248,39.9375 L 166.92248,39.6375 L 166.99748,39.4125 L 167.14748,39.1875 C 167.47873,38.21375 167.57873,37.6525 167.74748,36.6375 C 167.94498,33.635 166.46373,31.1775 164.29748,29.2125 L 164.07248,30.0375 L 163.84748,29.0625 L 163.02248,29.3625 L 163.69748,29.8875"
         id="path2524"
         style="fill:#cdcdcd;fill-opacity:1;fill-rule:nonzero;stroke:none" />
      <path
         d="M 166.84748,30.7875 L 167.67248,30.5625 C 166.90623,29.1975 165.28623,28.84625 163.84748,29.0625 L 164.07248,30.0375 L 164.14748,30.0375 L 164.22248,29.9625 L 165.12248,29.9625 C 166.03873,30.26125 166.32248,30.23125 166.92248,31.0875 L 167.74748,30.7875 L 166.92248,31.0875 L 167.82248,32.4375 L 167.74748,30.7875"
         id="path2526"
         style="fill:#cdcdcd;fill-opacity:1;fill-rule:nonzero;stroke:none" />
      <path
         d="M 163.09748,25.1625 C 165.20998,26.3325 166.61498,28.38125 166.84748,30.7875 L 167.74748,30.7875 C 167.61998,28.09375 165.95373,25.57875 163.54748,24.3375"
         id="path2528"
         style="fill:#cdcdcd;fill-opacity:1;fill-rule:nonzero;stroke:none" />
      <path
         d="M 160.54748,21.7875 C 161.52123,22.6 161.63123,24.57 163.09748,25.1625 L 163.54748,24.3375 C 163.08248,24.23875 162.50623,23.26875 162.34748,22.8375 L 162.19748,22.5375 L 162.12248,22.3125 L 161.82248,21.8625 L 161.67248,21.5625 L 161.52248,21.3375 L 161.29748,21.1125 L 160.99748,20.9625"
         id="path2530"
         style="fill:#cdcdcd;fill-opacity:1;fill-rule:nonzero;stroke:none" />
      <path
         d="M 150.64748,22.0875 C 151.71623,20.80875 153.61498,20.79625 155.14748,20.8125 C 156.68498,20.7825 159.18998,21.02875 160.54748,21.7875 L 160.99748,20.9625 L 160.84748,20.8125 L 160.39748,20.6625 L 160.09748,20.5875 L 159.79748,20.4375 L 159.19748,20.2875 L 158.82248,20.2125 C 157.86623,20.035 156.56123,19.8725 155.59748,19.8375 C 154.10248,19.815 150.75998,19.94875 149.97248,21.4875 L 150.04748,21.4125 L 150.64748,22.0875 L 150.72248,22.0125"
         id="path2532"
         style="fill:#cdcdcd;fill-opacity:1;fill-rule:nonzero;stroke:none" />
      <path
         d="M 156.49748,17.7375 C 157.19373,18.72 158.02498,19.97875 159.34748,20.0625 C 160.45748,20.0475 161.39623,19.4925 161.89748,18.4875 C 158.75123,18.695 160.11623,13.51625 162.87248,15.7125 C 162.51748,15.08375 162.68248,15.17375 162.64748,14.4375 C 163.01748,13.58875 163.84123,12.845 164.82248,13.0125 L 161.37248,21.6375 L 149.82248,21.6375 L 146.29748,13.3875 C 147.23873,13.295 148.09998,13.99125 148.47248,14.8125 C 148.43373,15.52 148.61123,15.39625 148.24748,15.9375 L 148.39748,15.8625 L 148.47248,15.7875 L 148.54748,15.6375 L 148.62248,15.5625 L 148.69748,15.4875 L 148.84748,15.3375 L 148.92248,15.3375 L 148.99748,15.2625 C 149.93123,14.9875 150.80498,15.775 151.09748,16.6125 C 151.20998,17.3475 150.98873,18.355 150.12248,18.4875 L 149.97248,18.4875 L 149.89748,18.5625 L 149.52248,18.5625 L 149.37248,18.4875 L 149.14748,18.4875 L 149.29748,18.6375 L 149.37248,18.8625 L 149.82248,19.3125 L 149.97248,19.3875 L 150.12248,19.5375 L 150.27248,19.6125 L 150.42248,19.7625 L 150.64748,19.8375 L 150.79748,19.9125 L 151.02248,19.9125 L 151.24748,19.9875 L 151.39748,19.9875 L 151.62248,20.0625 L 151.84748,20.0625 C 153.15248,20.0325 153.96623,18.67375 154.62248,17.7375 L 154.47248,17.8125 L 154.39748,17.8125 L 154.32248,17.8875 L 154.17248,17.9625 L 153.94748,17.9625 L 153.79748,18.0375 L 153.64748,18.0375 C 152.79873,17.94625 151.97998,17.31125 152.07248,16.3875 L 152.07248,16.0875 L 152.14748,15.7125 L 152.29748,15.4875 L 152.52248,15.1875 L 152.74748,15.0375 L 153.34748,14.7375 L 153.94748,14.7375 L 154.09748,14.8125 L 154.17248,14.8125 L 154.24748,14.8875 L 154.39748,14.8875 L 154.47248,14.9625 C 153.88123,14.41875 154.12123,14.19 153.94748,13.7625 C 154.04873,12.87 154.66998,12.15375 155.59748,12.1125 L 156.19748,12.2625 L 156.49748,12.4125 L 156.72248,12.6375 L 156.87248,12.8625 L 157.17248,13.4625 L 157.17248,14.1375 L 156.94748,14.5875 L 156.87248,14.7375 L 156.64748,14.9625 L 156.79748,14.9625 L 156.94748,14.8125 L 157.09748,14.8125 L 157.17248,14.7375 L 157.77248,14.7375 L 158.14748,14.8875 L 158.59748,15.1875 L 158.82248,15.4875 L 158.97248,15.7125 L 159.04748,16.0875 L 159.12248,16.3875 C 158.97748,17.34625 158.45623,17.93375 157.47248,18.0375 L 157.32248,17.9625 L 157.17248,17.9625 L 157.02248,17.8875 L 156.87248,17.8875 L 156.72248,17.8125 L 156.64748,17.7375 L 156.49748,17.7375"
         id="path2534"
         style="fill:#ccb233;fill-opacity:1;fill-rule:evenodd;stroke:none" />
      <path
         d="M 159.34748,23.4375 C 160.79123,21.82125 162.92998,20.54625 165.19748,20.8875 L 165.12248,20.8875 C 165.04623,21.68375 164.57748,22.45125 164.22248,23.1375 C 163.42998,24.45625 161.94373,25.73875 160.39748,25.9875 L 159.34748,23.4375"
         id="path2536"
         style="fill:#d90033;fill-opacity:1;fill-rule:evenodd;stroke:none" />
      <path
         d="M 165.64748,20.9625 L 165.19748,20.3625 L 163.84748,20.3625 L 162.64748,20.6625 L 162.12248,20.8125 L 161.59748,21.1125 L 161.14748,21.3375 C 160.31498,21.81375 159.59123,22.4175 158.97248,23.1375 L 159.72248,23.7375 L 159.72248,23.6625 L 159.87248,23.5875 L 159.94748,23.4375 L 160.32248,23.0625 L 160.62248,22.8375 L 160.84748,22.6125 L 161.22248,22.3875 C 162.46248,21.54 163.62498,21.24375 165.12248,21.3375 L 164.67248,20.7375 L 165.64748,20.9625 L 165.72248,20.4375 L 165.19748,20.3625"
         id="path2538"
         style="fill:#cdcdcd;fill-opacity:1;fill-rule:nonzero;stroke:none" />
      <path
         d="M 160.47248,26.4375 C 162.05373,26.28625 163.89123,24.75875 164.59748,23.3625 L 164.89748,22.9125 L 165.12248,22.4625 L 165.42248,21.7125 L 165.49748,21.4125 L 165.57248,21.1875 L 165.64748,21.0375 L 165.64748,20.9625 L 164.67248,20.7375 L 164.67248,20.9625 L 164.59748,21.1125 L 164.52248,21.4125 L 164.37248,21.7125 L 164.07248,22.4625 L 163.77248,22.9125 L 163.54748,23.2875 L 163.24748,23.7375 L 162.79748,24.1125 L 162.42248,24.4875 L 161.97248,24.8625 L 161.44748,25.1625 L 160.92248,25.3875 L 160.24748,25.5375"
         id="path2540"
         style="fill:#cdcdcd;fill-opacity:1;fill-rule:nonzero;stroke:none" />
      <path
         d="M 160.47248,23.8125 L 160.54748,23.8125 L 160.84748,23.5125 L 160.99748,23.4375 L 161.14748,23.2875 L 161.37248,23.1375 C 161.65748,22.8775 162.99248,22.27875 163.39748,22.2375 L 163.39748,22.3125 L 163.32248,22.4625 L 163.24748,22.5375 L 163.17248,22.6875 L 163.02248,22.8375 L 162.94748,23.0625 L 162.79748,23.2125 L 162.64748,23.4375 L 162.42248,23.6625 L 161.97248,23.9625 L 161.74748,24.1875 L 161.44748,24.3375 L 161.14748,24.4125 L 160.77248,24.4875 L 160.47248,23.8125"
         id="path2542"
         style="fill:#cdcdcd;fill-opacity:1;fill-rule:evenodd;stroke:none" />
      <path
         d="M 153.64748,28.0125 C 153.03748,27.7825 152.88498,27.52125 152.22248,27.8625 C 152.76248,27.79875 153.05498,28.24 153.42248,28.4625 C 153.70873,28.7175 154.08248,29.195 154.39748,29.3625 L 154.54748,29.4375 L 155.29748,29.4375 L 155.44748,29.3625 L 155.52248,29.3625 L 155.59748,29.2875 L 155.74748,29.2875 L 155.82248,29.2125 L 155.89748,29.2125 L 155.97248,29.1375 L 156.04748,29.0625 C 154.90998,29.41125 154.41373,28.66375 153.64748,28.0125"
         id="path2544"
         style="fill:#cdcdcd;fill-opacity:1;fill-rule:evenodd;stroke:none" />
      <path
         d="M 152.22248,23.5125 C 152.27498,24.0525 152.07123,24.44375 151.54748,24.6375 L 151.17248,24.6375 L 150.94748,24.5625 L 150.72248,24.3375 L 150.57248,24.2625 L 150.49748,24.1125 L 150.42248,23.8875 L 150.42248,23.5875 L 150.57248,23.6625 L 151.47248,23.6625 L 151.62248,23.5875 L 151.77248,23.5875 L 151.84748,23.5125 L 152.22248,23.5125"
         id="path2546"
         style="fill:#cdcdcd;fill-opacity:1;fill-rule:evenodd;stroke:none" />
      <path
         d="M 151.84748,23.8125 L 151.77248,23.8125 L 152.22248,23.7375 L 152.59748,23.7375 L 152.97248,23.8125 L 153.19748,23.8875 L 153.27248,23.9625 L 153.42248,23.9625 L 153.49748,24.0375 L 153.49748,23.9625 L 154.09748,23.3625 C 153.56873,22.8125 152.31873,22.74875 151.62248,22.9125"
         id="path2548"
         style="fill:#cdcdcd;fill-opacity:1;fill-rule:nonzero;stroke:none" />
      <path
         d="M 149.89748,23.0625 L 149.07248,23.3625 C 149.81748,23.99125 150.93373,24.11875 151.84748,23.8125 L 151.62248,22.9125 L 151.09748,23.0625 L 150.72248,23.0625 L 150.34748,22.9875 L 150.12248,22.9125 L 149.97248,22.8375 L 149.82248,22.7625 L 149.74748,22.7625 L 149.82248,22.7625 L 148.99748,22.9875 L 149.82248,22.7625 L 149.07248,22.0125 L 148.99748,22.9875"
         id="path2550"
         style="fill:#cdcdcd;fill-opacity:1;fill-rule:nonzero;stroke:none" />
      <path
         d="M 151.09748,25.0875 C 150.40998,24.94 150.40873,24.72125 150.04748,24.1875 C 150.00123,23.7725 149.85248,23.54625 149.89748,23.0625 L 148.99748,22.9875 C 148.91873,24.33 149.49873,25.7125 150.94748,25.9875 L 151.09748,25.0875"
         id="path2552"
         style="fill:#cdcdcd;fill-opacity:1;fill-rule:nonzero;stroke:none" />
      <path
         d="M 152.59748,24.0375 C 152.26998,24.78625 151.92873,25.19125 151.09748,25.0875 L 150.94748,25.9875 L 151.09748,25.9875 L 151.24748,26.0625 L 151.54748,25.9875 L 151.99748,25.9125 L 152.37248,25.7625 L 152.82248,25.4625 L 153.19748,25.0125 L 153.49748,24.3375"
         id="path2554"
         style="fill:#cdcdcd;fill-opacity:1;fill-rule:nonzero;stroke:none" />
      <path
         d="M 154.77248,23.8125 C 154.12623,23.07125 152.95998,22.87125 152.59748,24.0375 L 153.49748,24.3375 L 153.57248,24.1875 L 153.64748,24.1125 L 153.72248,24.1125 L 153.87248,24.1875 L 153.94748,24.3375 L 154.02248,24.4125 L 154.09748,24.4125"
         id="path2556"
         style="fill:#cdcdcd;fill-opacity:1;fill-rule:nonzero;stroke:none" />
      <path
         d="M 160.69748,27.3375 L 160.39748,28.3875 C 161.55873,29.79625 162.18623,31.81625 161.44748,33.5625 L 161.37248,33.1875 L 161.22248,32.8125 L 161.07248,32.4375 L 160.92248,32.1375 L 160.77248,31.9125 L 160.47248,31.4625 L 160.24748,31.3125 L 159.94748,31.0125 L 159.79748,30.9375 L 159.64748,30.8625 L 159.57248,30.7875 L 159.49748,30.7125 L 159.42248,30.7125 L 158.52248,30.3375 C 158.95748,31.91875 159.10123,32.48875 158.89748,34.0875 C 158.68373,34.73 158.72748,34.70875 158.37248,35.2875 L 158.22248,35.4375 L 158.14748,35.5875 L 157.99748,35.6625 L 157.92248,35.8125 L 157.77248,35.8875 L 157.62248,35.9625 L 157.54748,36.1125 C 157.85873,35.28625 157.91498,34.32125 157.62248,33.4875 C 157.28248,32.32 157.15873,32.8125 156.34748,31.6875 C 156.25623,33.055 156.25748,34.35875 155.07248,35.2125 C 155.36623,34.6075 155.31748,33.63625 154.99748,33.0375 L 154.17248,33.4875 C 154.76373,34.73875 153.65998,35.91875 152.74748,36.6375 C 153.98373,36.5775 154.15248,36.64375 155.14748,36.2625 C 155.86873,35.8375 156.58998,35.1925 156.87248,34.3875 C 156.91748,35.64875 156.21373,36.81375 155.44748,37.7625 C 156.30498,37.68875 156.82123,37.4875 157.54748,37.1625 C 158.23873,36.81 158.82123,36.2825 159.27248,35.6625 C 159.47748,35.14 159.70123,34.62375 159.87248,34.0875 C 159.87623,33.49625 160.07248,32.8725 159.87248,32.2875 C 160.09373,32.67 160.34498,32.94625 160.47248,33.4125 C 160.64498,34.39625 160.78248,35.38625 160.69748,36.4125 C 163.26248,33.8175 163.50498,30 160.69748,27.3375"
         id="path2558"
         style="fill:#cdcdcd;fill-opacity:1;fill-rule:evenodd;stroke:none" />
      <path
         d="M 344.59748,34.6875 L 351.94748,34.6125 L 348.04748,25.9875 L 344.59748,34.6875 z M 332.67248,19.0875 L 332.67248,38.5125 L 340.54748,19.0875 L 355.62248,19.0875 L 366.19748,45.1875 L 356.37248,45.1875 L 354.49748,41.2125 L 341.89748,41.2125 L 340.32248,45.1875 L 322.62248,45.1875 L 322.62248,19.0875 L 332.67248,19.0875 z M 268.09748,34.6875 L 275.52248,34.6875 L 271.54748,25.7625 L 268.09748,34.6875 z M 264.34748,19.0875 L 279.12248,19.0875 L 281.59748,24.7125 L 287.22248,38.4375 L 287.22248,19.0875 L 300.04748,19.0875 L 310.69748,33.1125 L 310.69748,19.0875 L 320.44748,19.0875 L 320.44748,45.1875 L 308.59748,45.1875 L 296.67248,29.6625 L 296.67248,45.1125 L 279.94748,45.1125 L 278.22248,41.1375 L 265.39748,41.1375 L 263.59748,45.1875 L 253.84748,45.1875 L 254.89748,42.5625 C 251.03498,45.2725 248.30498,45.665 243.64748,45.7125 C 237.02498,45.67875 231.55623,44.43 228.19748,38.2125 C 226.11998,45.16875 217.61998,45.57 211.62248,45.6375 C 205.71998,45.6675 195.34373,44.5375 195.49748,36.5625 L 206.97248,36.5625 C 206.93623,39.81125 210.70123,40.36125 213.19748,40.0875 C 214.94748,39.8625 217.27873,38.4375 216.27248,36.3375 C 213.80998,32.73375 201.37123,37.72 197.29748,30.1875 C 194.30873,21.9525 201.56748,18.6175 208.62248,18.3375 C 214.68123,17.79375 227.25498,18.11375 226.99748,26.8875 L 215.89748,26.8875 C 215.99998,24.10875 214.35998,22.9175 211.69748,23.0625 C 209.87248,22.97375 207.43123,23.5425 207.57248,25.8375 C 208.60123,30.78875 221.02498,24.9025 226.99748,31.4625 C 227.92248,21.37875 233.55998,18.25 243.12248,18.1125 C 249.94498,18.09125 259.39123,20.57625 259.24748,28.9875 L 248.74748,28.9875 C 247.99998,25.7425 246.26373,24.53 242.97248,24.4875 C 238.18748,24.51 236.89873,28.3825 236.89748,32.5125 C 236.66998,40.63125 247.64373,41.74625 248.82248,34.6125 L 258.12248,34.6125 L 264.34748,19.0875"
         id="path2560"
         style="fill:#06185d;fill-opacity:1;fill-rule:evenodd;stroke:none" />
    </g>
  </g>
</svg>
