<?xml version="1.0" encoding="iso-8859-1"?>
<!-- Generator: Adobe Illustrator 19.0.0, SVG Export Plug-In . SVG Version: 6.00 Build 0)  -->
<svg version="1.1" id="Capa_1" xmlns="http://www.w3.org/2000/svg" xmlns:xlink="http://www.w3.org/1999/xlink" x="0px" y="0px"
	 viewBox="0 0 512 512" style="enable-background:new 0 0 512 512;" xml:space="preserve">
<g>
	<g>
		<path d="M410.35,391.547c4.142,0,7.5-3.358,7.5-7.5v-39.02c0-31.86-25.924-57.781-57.791-57.781h-27.916
			c19.497-15.129,34.389-35.916,42.198-59.876c22.506-0.743,40.589-19.276,40.589-41.964c0-12.36-5.388-23.931-14.629-31.86
			c1.669-9.064,2.611-20,2.347-33.19c-1.099-54.872-39.872-77.448-50.464-82.598c-3.77-6.418-8.986-12.152-15.665-17.143
			C307.514-1.062,255.149-3.363,228.502,3.309c-30.239,7.572-57.926,0.124-58.191,0.051c-2.609-0.727-5.41,0.008-7.324,1.926
			c-1.915,1.918-2.645,4.72-1.911,7.329l3.382,12.026c-12.644,5.603-23.974,16.209-32.432,30.512
			c-2.108,3.565-0.927,8.165,2.638,10.273c3.564,2.109,8.165,0.927,10.273-2.638c10.845-18.339,23.877-24.338,30.68-26.282
			c3.971-1.134,6.278-5.266,5.16-9.242l-1.969-7.001c12.229,1.743,32.038,2.931,53.338-2.402
			c23.154-5.796,70.448-3.874,95.396,14.77c5.528,4.131,9.661,8.796,12.461,14.066c0.064,0.137,0.132,0.27,0.204,0.402
			c2.54,4.928,3.934,10.377,4.188,16.422c0.08,1.917,0.244,3.96,0.417,6.123c0.744,9.313,1.67,20.902-3.49,30.813
			c-2.037,3.913-4.928,7.351-8.663,10.35c-0.038,0.027-0.074,0.059-0.111,0.087c-7.553,6.02-18.583,10.232-33.366,12.742
			c-23.026,3.909-44.667,2.958-63.758,2.121c-32.479-1.427-60.535-2.659-80.906,20.157c-10.501,11.761-16.632,21.637-20.078,29.688
			c-2.003-5.475-3.848-12.316-5.032-20.626c-0.024-0.376-0.069-0.753-0.151-1.126c-1.319-9.916-1.695-21.865-0.271-36.105
			c0.994-9.938,2.633-19.235,4.874-27.634c1.067-4.002-1.312-8.112-5.313-9.18c-4.003-1.069-8.113,1.311-9.18,5.313
			c-2.447,9.175-4.232,19.271-5.306,30.007c-1.355,13.547-1.197,25.341-0.123,35.517c-10.508,7.874-16.868,20.343-16.868,33.637
			c0,22.689,18.083,41.221,40.589,41.965c7.809,23.96,22.701,44.747,42.198,59.876h-27.916c-31.866,0-57.791,25.92-57.791,57.781
			V504.5c-0.004,4.142,3.354,7.5,7.496,7.5H410.35c4.142,0,7.5-3.358,7.5-7.5v-90.501c0-4.142-3.358-7.5-7.5-7.5s-7.5,3.358-7.5,7.5
			V497h-43.617v-92.335c0-4.142-3.358-7.5-7.5-7.5c-4.142,0-7.5,3.358-7.5,7.5V497h-80.734V469.39l42.661-50.333
			c1.517-1.789,2.109-4.185,1.601-6.475l-22.782-102.664c7.754-1.857,15.231-4.436,22.349-7.672h52.732
			c23.595,0,42.79,19.191,42.79,42.781v39.02C402.85,388.189,406.208,391.547,410.35,391.547z M112.066,185.406
			c0-5.685,1.819-11.131,5.018-15.636c4.65,18.539,12.083,28.983,15.226,32.766c0.345,3.147,0.807,6.26,1.383,9.333
			C121.371,209.374,112.066,198.457,112.066,185.406z M399.93,185.406c0,13.051-9.306,23.968-21.628,26.463
			c1.149-6.129,1.846-12.413,2.057-18.82c4.216-3.239,10.428-9.789,15.233-22.313C398.38,175.04,399.93,180.108,399.93,185.406z
			 M354.625,107.384c7.151-13.735,5.987-28.3,5.138-38.935c-0.161-2.018-0.313-3.923-0.382-5.557
			c-0.042-1.013-0.114-2.013-0.204-3.004c12.356,9.961,27.833,28.769,28.473,60.767c0.574,28.669-4.997,44.445-10.063,52.804
			c-3.782-15.537-12.147-40.128-29.382-56.849C350.739,113.771,352.896,110.704,354.625,107.384z M292.31,412.198l-36.312,42.84
			l-36.31-42.839l2.891-12.993c0.9-4.043-1.649-8.05-5.692-8.95c-4.045-0.901-8.051,1.649-8.95,5.692l-3.7,16.63
			c-0.51,2.291,0.082,4.688,1.6,6.479l42.661,50.333V497h-80.734v-92.335c0-4.142-3.358-7.5-7.5-7.5s-7.5,3.358-7.5,7.5V497h-43.618
			V345.028c0-23.589,19.195-42.781,42.79-42.781h52.732c7.118,3.236,14.595,5.815,22.35,7.672l-13.023,58.704
			c-0.897,4.044,1.654,8.049,5.697,8.946c0.547,0.122,1.093,0.18,1.631,0.18c3.439,0,6.54-2.38,7.315-5.877l13.167-59.353
			c4.659,0.531,9.393,0.814,14.192,0.814c4.799,0,9.533-0.283,14.192-0.814L292.31,412.198z M255.998,298.334
			c-60.344,0-109.438-49.094-109.438-109.437c0-0.615-0.082-1.208-0.221-1.78c1.67-6.494,6.475-16.775,19.365-31.211
			c15.632-17.508,38.042-16.524,69.059-15.162c19.84,0.871,42.328,1.859,66.927-2.318c14.18-2.408,25.819-6.487,34.898-12.163
			c22.129,20.262,28.184,58.46,28.842,63.076C365.191,249.48,316.195,298.334,255.998,298.334z"/>
	</g>
</g>
<g>
	<g>
		<path d="M208.346,173.034h-1.169c-4.142,0-7.5,3.358-7.5,7.5s3.358,7.5,7.5,7.5h1.169c4.142,0,7.5-3.358,7.5-7.5
			S212.488,173.034,208.346,173.034z"/>
	</g>
</g>
<g>
	<g>
		<path d="M304.819,173.034h-1.169c-4.142,0-7.5,3.358-7.5,7.5s3.358,7.5,7.5,7.5h1.169c4.142,0,7.5-3.358,7.5-7.5
			S308.961,173.034,304.819,173.034z"/>
	</g>
</g>
<g>
	<g>
		<path d="M297.12,224.761c-2.902-3.771-7.295-5.934-12.053-5.934h-58.141c-4.758,0-9.151,2.163-12.053,5.934
			c-2.906,3.777-3.873,8.587-2.651,13.196c5.253,19.814,23.253,33.653,43.773,33.653s38.522-13.839,43.776-33.654
			C300.993,233.348,300.026,228.538,297.12,224.761z M285.273,234.113c-3.512,13.246-15.55,22.497-29.274,22.497
			c-13.726-0.001-25.764-9.252-29.276-22.497c-0.014-0.054-0.03-0.114,0.04-0.205c0.063-0.082,0.11-0.082,0.165-0.082h58.141
			c0.055,0,0.102,0,0.165,0.082C285.303,233.999,285.287,234.059,285.273,234.113z"/>
	</g>
</g>
<g>
</g>
<g>
</g>
<g>
</g>
<g>
</g>
<g>
</g>
<g>
</g>
<g>
</g>
<g>
</g>
<g>
</g>
<g>
</g>
<g>
</g>
<g>
</g>
<g>
</g>
<g>
</g>
<g>
</g>
</svg>
